PathFileType	4	(X/Y/Z)	E:\Qualisys_Data\Carbon_Farble_Plate\Data\Amateur_Runner\S14\T2\S14T2V22_c3d.trc
DataRate	CameraRate	NumFrames	NumMarkers	Units	OrigDataRate	OrigDataStartFrame	OrigNumFrames
200.000000	200.000000	4	39	mm	200.000000	118	316
Frame#	Time	LSHO			RSHO			LICST			RICST			LASIS			LHEEL			RASIS			LTROC			RTROC			SACR			LTH1			LSK4			LTH2			LTH3			RHM5			LSK2			LTH4			RTH1			LTOE			RTH2			RTH3			RTH4			LLEP			RLEP			LSK1			LSK3			RSK1			LHM5			RSK2			LFT1			RSK3			RSK4			LLME			RLME			RTOE			RHEEL			RFT1			RFT2			LFT2			
		X1	Y1	Z1	X2	Y2	Z2	X3	Y3	Z3	X4	Y4	Z4	X5	Y5	Z5	X6	Y6	Z6	X7	Y7	Z7	X8	Y8	Z8	X9	Y9	Z9	X10	Y10	Z10	X11	Y11	Z11	X12	Y12	Z12	X13	Y13	Z13	X14	Y14	Z14	X15	Y15	Z15	X16	Y16	Z16	X17	Y17	Z17	X18	Y18	Z18	X19	Y19	Z19	X20	Y20	Z20	X21	Y21	Z21	X22	Y22	Z22	X23	Y23	Z23	X24	Y24	Z24	X25	Y25	Z25	X26	Y26	Z26	X27	Y27	Z27	X28	Y28	Z28	X29	Y29	Z29	X30	Y30	Z30	X31	Y31	Z31	X32	Y32	Z32	X33	Y33	Z33	X34	Y34	Z34	X35	Y35	Z35	X36	Y36	Z36	X37	Y37	Z37	X38	Y38	Z38	X39	Y39	Z39	

119	0.59	-977.1682739257812	1390.219360351562	-518.5798950195312	-980.4400634765624	1405.78515625	-206.2943725585938	-1057.457641601562	956.8843994140624	-477.8335571289062	-1023.262084960938	954.3370971679688	-197.6786041259766	-1016.543273925781	905.0195922851562	-455.731201171875	-1411.4453125	125.6393966674805	-315.5219116210938	-999.990478515625	911.3550415039062	-219.5217437744141	-1159.972045898438	848.1016845703125	-483.6673278808594	-1137.212280273438	836.1890869140625	-162.6476745605469	-1176.201538085938	971.9925537109376	-336.5440368652344	-1093.306274414062	610.9310913085938	-475.4239807128906	-1273.756591796875	297.8297729492188	-411.6874694824219	-1167.767700195312	614.32763671875	-455.8807983398438	-1086.369750976562	515.816650390625	-443.1952819824219	-1300.331176757812	227.9981689453125	-168.3130798339844	-1218.285888671875	375.9747619628906	-435.2370910644531	-1164.646240234375	519.6137084960938	-429.9675903320312	-932.5081176757812	668.66357421875	-151.0106201171875	-1169.238037109375	62.43981170654297	-356.2510986328125	-1006.221801757812	642.1583251953125	-139.0809783935547	-895.7702026367188	575.5989990234375	-167.1769256591797	-973.7174682617188	546.0601196289062	-150.0714111328125	-1133.960205078125	442.1803894042969	-432.7267456054688	-935.2669067382812	495.2359619140625	-149.7721099853516	-1148.142211914062	333.8998718261719	-421.7125549316406	-1207.093017578125	252.5547027587891	-400.1949157714844	-1017.757568359375	419.6210021972656	-159.0482482910156	-1238.172241210938	62.85418701171875	-418.7991943359375	-1054.767211914062	497.3559875488281	-162.5170593261719	-1407.0673828125	93.5973663330078	-297.0245056152344	-1112.153930664062	382.4266662597656	-181.0255584716797	-1139.169311523438	455.7265014648438	-181.1912231445312	-1341.93310546875	137.9261779785156	-382.9855651855469	-1283.325561523438	361.1567077636719	-210.8179473876953	-1257.282836914062	151.781005859375	-217.3127136230469	-1321.171752929688	398.7140808105469	-274.3213195800781	-1343.341674804688	370.6050720214844	-299.7175903320312	-1347.328247070312	391.2882080078125	-247.4756622314453	-1416.812255859375	97.93032836914062	-351.8331604003906
120	0.595	-952.4591674804688	1394.885864257812	-517.0431518554688	-961.2754516601562	1409.89892578125	-205.5483703613281	-1034.958251953125	959.691162109375	-478.6134338378906	-1001.294860839844	957.6798706054688	-198.4471893310547	-994.3280029296876	907.3974609375	-456.5162658691406	-1408.102416992188	132.7162322998047	-316.7724609375	-977.2296142578124	915.1893310546876	-219.9560852050781	-1138.766357421875	851.6056518554688	-484.09423828125	-1114.791625976562	840.5873413085938	-162.9669036865234	-1154.448364257812	975.2969360351562	-337.7337036132812	-1080.99560546875	613.6112670898438	-475.4509887695312	-1269.506103515625	303.4878234863281	-412.2654418945312	-1155.319580078125	619.9453125	-456.061279296875	-1077.4775390625	518.3511352539062	-443.4026489257812	-1257.551635742188	221.9494323730469	-166.4319610595703	-1214.138427734375	382.6023254394531	-436.2286987304688	-1155.633666992188	525.2781372070312	-429.9732055664062	-906.4777221679688	676.865478515625	-151.5998840332031	-1168.61083984375	62.20123291015625	-356.2859191894531	-979.5442504882812	648.5126953125	-139.4631500244141	-866.8715209960938	585.14453125	-167.3854827880859	-944.0955200195312	553.552001953125	-150.0297393798828	-1127.883911132812	446.3365478515625	-433.7462768554688	-903.9026489257812	503.5983581542969	-149.4781188964844	-1143.202514648438	337.7993469238281	-422.3833923339844	-1202.941650390625	257.2709350585938	-401.5940856933594	-984.087158203125	424.9862060546875	-158.7006378173828	-1236.572387695312	63.33349990844727	-418.6780090332031	-1024.221923828125	500.7226867675781	-163.2522583007812	-1404.276611328125	100.5009460449219	-297.6795959472656	-1076.888671875	382.5961303710938	-179.4369354248047	-1106.642944335938	455.368896484375	-181.6248779296875	-1338.694213867188	142.7805633544922	-383.9866943359375	-1246.571411132812	355.7642822265625	-210.0328826904297	-1210.989868164062	147.1276397705078	-215.4651794433594	-1286.23974609375	390.4629211425781	-274.272216796875	-1307.717041015625	361.7192687988281	-300.2628479003906	-1312.715698242188	382.1354064941406	-247.6893005371094	-1413.83544921875	104.2958831787109	-352.56298828125
121	0.6	-928.0557861328124	1399.797607421875	-515.3677978515625	-942.2603149414062	1414.264282226562	-205.1700592041016	-1012.307739257812	962.7604370117188	-478.797607421875	-979.6492309570312	962.0122680664062	-199.2410583496094	-972.3280639648438	909.75537109375	-457.4962768554688	-1403.8515625	140.3497924804688	-318.6058959960938	-954.0242919921876	918.1812744140624	-219.5347595214844	-1117.139526367188	855.3648681640625	-485.0063171386719	-1092.050537109375	844.6317749023438	-163.1479797363281	-1132.129150390625	978.6157836914062	-338.5558166503906	-1067.96484375	616.98974609375	-475.9619445800781	-1264.039306640625	309.5718994140625	-412.6590270996094	-1142.1494140625	625.9373168945312	-456.1360168457031	-1068.185302734375	521.9435424804688	-443.95947265625	-1215.199584960938	215.2461242675781	-165.9453887939453	-1207.493774414062	387.4927978515625	-436.8079528808594	-1145.953857421875	531.1154174804688	-430.0221557617188	-880.6411743164062	685.0592041015625	-151.9192810058594	-1167.989868164062	62.15756988525391	-356.6344604492188	-953.0753173828124	654.749267578125	-139.8143920898438	-838.7896118164062	594.5016479492188	-167.5527038574219	-915.1116943359376	560.9680786132812	-150.5922241210938	-1120.893188476562	450.9210205078125	-433.8338012695312	-873.3679809570312	512.30859375	-149.3595275878906	-1137.814453125	343.2767028808594	-423.1672668457031	-1198.099243164062	262.7420349121094	-402.57177734375	-951.2424926757812	430.181396484375	-158.3826904296875	-1236.583374023438	63.63393402099609	-419.4750366210938	-994.5597534179688	504.1943969726562	-163.8902587890625	-1400.818115234375	108.48388671875	-298.9386901855469	-1041.5908203125	384.0946960449219	-179.0626220703125	-1074.8310546875	455.9619140625	-181.9600372314453	-1334.494140625	148.8666839599609	-385.0085144042969	-1209.951904296875	349.833251953125	-209.5481414794922	-1164.2001953125	143.0542144775391	-213.8581085205078	-1251.717407226562	382.0575256347656	-274.4252319335938	-1271.61865234375	351.5521850585938	-300.4027709960938	-1279.972290039062	373.4930114746094	-248.7992095947266	-1410.073608398438	111.5080795288086	-353.6737365722656
122	0.605	-903.5265502929688	1404.478881835938	-513.727783203125	-922.62646484375	1418.57421875	-204.3455047607422	-989.2176513671876	965.5468139648438	-479.4750671386719	-956.0108032226562	966.0764770507812	-200.5956268310547	-949.9285278320312	912.4894409179688	-458.033203125	-1398.394653320312	149.1476593017578	-319.904052734375	-930.4227905273438	923.5658569335938	-221.2787475585938	-1095.39111328125	859.279541015625	-485.9048461914062	-1069.22705078125	849.7128295898438	-163.1182098388672	-1109.160400390625	982.2542114257812	-339.6810913085938	-1054.511962890625	620.409423828125	-476.27587890625	-1258.171875	316.2947692871094	-413.8784790039062	-1128.482421875	632.7014770507812	-456.7574768066406	-1057.808959960938	525.8099365234375	-444.5787353515625	-1171.661010742188	208.6847534179688	-165.0129089355469	-1199.14794921875	393.7449951171875	-437.1711120605469	-1135.335571289062	537.7254638671875	-430.733642578125	-854.9488525390625	693.4631958007812	-152.0620727539062	-1167.116455078125	61.85371017456055	-357.2759704589844	-926.50146484375	661.4434204101562	-140.358154296875	-810.8035888671875	603.4186401367188	-167.8383331298828	-886.3878784179688	568.2942504882812	-150.6890411376953	-1113.166870117188	456.3978576660156	-434.6559143066406	-843.2366333007812	520.8197021484375	-149.2701110839844	-1131.70947265625	349.205078125	-424.2206420898438	-1192.635498046875	269.1014099121094	-404.4179077148438	-918.0459594726562	435.4009094238281	-157.8626556396484	-1235.693237304688	64.18760681152344	-420.0042114257812	-964.6307983398438	507.68017578125	-164.3715972900391	-1396.956298828125	117.3471527099609	-299.3446044921875	-1006.644226074219	385.3522644042969	-178.1897888183594	-1042.742919921875	455.711181640625	-182.2125549316406	-1329.375366210938	155.4275970458984	-386.3726806640625	-1173.253051757812	343.4437255859375	-209.318115234375	-1117.296142578125	139.0343017578125	-212.4474945068359	-1216.699462890625	372.9057312011719	-274.2156372070312	-1235.9609375	342.5973815917969	-300.8074035644531	-1244.619995117188	363.6481018066406	-248.5995483398438	-1405.6982421875	119.5712890625	-354.7872619628906
